<svg xmlns="http://www.w3.org/2000/svg" viewBox="0 0 619.81 619.81"><defs><style>.cls-1{fill:transparent;stroke:#000;stroke-miterlimit:10;opacity:0;}.cls-2{fill:#787878;}.cls-3{fill:#b4b4b4;}.cls-4{fill:#a0a0a0;}.cls-5{fill:#ffa200;}</style></defs><g id="Layer_2" data-name="Layer 2"><g id="svg2848"><rect class="cls-1" x="0.5" y="0.5" width="618.81" height="618.81"/><path class="cls-2" d="M152,53.6a294.19,294.19,0,0,0-78,69.14,269.58,269.58,0,0,0,34.91-4.68A319.69,319.69,0,0,1,152,53.6Z"/><path class="cls-3" d="M252.9,37.78a270.49,270.49,0,0,0,21.28-25.84,294.51,294.51,0,0,0-95.56,27.23A319.74,319.74,0,0,1,252.9,37.78Z"/><path class="cls-2" d="M179.54,93.16,165.68,67.58a298.16,298.16,0,0,0-31.14,44A271.3,271.3,0,0,0,179.54,93.16Z"/><path class="cls-4" d="M183.05,58.23l13.72,25.32a270.52,270.52,0,0,0,37.28-27.49A298.7,298.7,0,0,0,183.05,58.23Z"/><path class="cls-3" d="M434.86,39.68A297.54,297.54,0,0,0,299.17,10.32,288.93,288.93,0,0,1,276.46,41,318.59,318.59,0,0,1,403.54,93.19,422.45,422.45,0,0,0,434.86,39.68Z"/><path class="cls-2" d="M74.71,275.42A318.63,318.63,0,0,1,98.89,139.88a288,288,0,0,1-39.65,3.18A297.35,297.35,0,0,0,12.05,273.54,422.31,422.31,0,0,0,74.71,275.42Z"/><path class="cls-4" d="M382.32,117.82c1.06-.15,2.14-.29,3.23-.42q3.3-4.12,6.49-8.3a298.94,298.94,0,0,0-131.6-50.8,287.94,287.94,0,0,1-54.3,42.54l63.3,116.83q17.87-10.47,34.32-22.4c3.26-22.06,11.47-39.83,24.43-52.79C341.45,129.22,359.66,120.92,382.32,117.82Z"/><path class="cls-2" d="M94.26,274.09a421.31,421.31,0,0,0,157.92-46.86L188.94,110.51a289.46,289.46,0,0,1-66.83,24.85A298.45,298.45,0,0,0,94.26,274.09Z"/><path class="cls-3" d="M513.33,114.45c7,0,13.2.13,18.65.38a294.09,294.09,0,0,0-79.66-66,441.82,441.82,0,0,1-32.94,56.07q5.89,4.68,11.59,9.67c5.42-.1,11.1-.16,17.09-.16Z"/><path class="cls-2" d="M112.32,411.22A312.25,312.25,0,0,1,76.19,295.1a441.47,441.47,0,0,1-65.7-1.92A294.18,294.18,0,0,0,43,441.62a587.32,587.32,0,0,0,85.14-4.27Q119.69,424.8,112.32,411.22Z"/><path class="cls-4" d="M299.83,267.59a32.67,32.67,0,0,0,.33-5.24c0-15.68.36-29.38,1.09-41.36q-10.94,7.29-22.41,14l18.75,34.6a23.25,23.25,0,0,0,2.22-2Z"/><path class="cls-2" d="M268.39,304.78a72.27,72.27,0,0,1,13.91-22l-20.72-38.24A440.23,440.23,0,0,1,95.7,293.71,296.23,296.23,0,0,0,150,434.24a585,585,0,0,0,112.9-30.17V337C262.86,324.3,264.67,313.78,268.39,304.78Z"/><path class="cls-2" d="M141.33,455.46a606.6,606.6,0,0,1-87.15,6,294.29,294.29,0,0,0,121.41,110.3,724.9,724.9,0,0,0,90.08-21.17A313.56,313.56,0,0,1,141.33,455.46Z"/><path class="cls-2" d="M266.22,477.27c-1.88-13.69-3-30.87-3.26-52.19a603.49,603.49,0,0,1-99.23,26.8A295.15,295.15,0,0,0,295.09,541l4.93-1.76a77.5,77.5,0,0,1-9.15-7.78C277.62,518.17,269.32,499.94,266.22,477.27Z"/><path class="cls-2" d="M295.6,561.57a746.24,746.24,0,0,1-87.25,23.92,295.29,295.29,0,0,0,225.58-12.33A320.35,320.35,0,0,1,295.6,561.57Z"/><path class="cls-5" d="M602.26,309q-7-7-22.15-8.16T537,299.65H518.33q-12.12,0-20.28.7T485,304.55c-3.27,2.33-5.53,6-6.76,10.95s-1.87,12.13-1.87,21.45.62,16.55,1.87,21.68,3.33,8.86,6.29,11.19a20.05,20.05,0,0,0,11.42,4q7,.48,17.72.47a90.45,90.45,0,0,1,12.12.7,14.69,14.69,0,0,1,8.63,4.2q3.5,3.5,5.36,11t1.87,21.45q0,14-1.87,21.68T533,444.42c-3.26,2.33-7.62,3.66-13,4s-12.21.46-20.29.46h-28q-21,0-32.41-.93t-16.55-6.06q-5.13-5.13-6.06-16.55t-.93-32.41V281q0-21,.93-32.4T422.75,232q5.13-5.11,16.55-6.06t32.41-.93h46.62q14,0,23.08-.47t14.22-4q5.13-3.5,7.23-11.19t2.1-21.68q0-14-2.1-21.45t-7.23-11q-5.13-3.49-14.22-4.2t-23.08-.7H453.06q-38.71,0-60.85,3t-33.57,14.45q-11.43,11.44-14.45,33.81t-3,60.61q0,11.65-2.8,18.42a36.15,36.15,0,0,1-7,11.19,58,58,0,0,1-8.86,7.69,58.6,58.6,0,0,0-8.86,7.69,36.2,36.2,0,0,0-7,11.19q-2.81,6.77-2.8,18.42v74.6q0,38.7,3,60.85T321.34,506q11.43,11.43,33.57,14.45t60.85,3H537q28,0,43.13-1.16t22.15-8.16q7-7,8.16-22.15t1.16-43.13v-74.6q0-28-1.16-43.13T602.26,309Z"/></g></g></svg>