<svg xmlns="http://www.w3.org/2000/svg" viewBox="0 0 601.4 591.94"><defs><style>.cls-1{fill:#787878;}.cls-2{fill:#b4b4b4;}.cls-3{fill:#a0a0a0;}.cls-4{fill:#9468d8;}</style></defs><g id="Layer_2" data-name="Layer 2"><g id="svg2848"><path class="cls-1" d="M141.82,43.35a294.19,294.19,0,0,0-78,69.14,268.31,268.31,0,0,0,34.91-4.68A319.13,319.13,0,0,1,141.82,43.35Z"/><path class="cls-2" d="M242.71,27.53A267.39,267.39,0,0,0,264,1.7a294,294,0,0,0-95.56,27.23A319.21,319.21,0,0,1,242.71,27.53Z"/><path class="cls-1" d="M169.36,82.92,155.49,57.33a298.84,298.84,0,0,0-31.13,44A272.46,272.46,0,0,0,169.36,82.92Z"/><path class="cls-3" d="M172.87,48,186.59,73.3a270.52,270.52,0,0,0,37.28-27.49A299.69,299.69,0,0,0,172.87,48Z"/><path class="cls-2" d="M424.68,29.43A297.72,297.72,0,0,0,289,.08a288.67,288.67,0,0,1-22.72,30.68A318.76,318.76,0,0,1,393.36,82.94,424.15,424.15,0,0,0,424.68,29.43Z"/><path class="cls-1" d="M64.53,265.18A318.67,318.67,0,0,1,88.7,129.63a289.36,289.36,0,0,1-39.65,3.19A297.47,297.47,0,0,0,1.86,263.3,423.76,423.76,0,0,0,64.53,265.18Z"/><path class="cls-3" d="M372.14,107.57l3.23-.42q3.3-4.11,6.48-8.3A298.84,298.84,0,0,0,250.26,48.06,288.67,288.67,0,0,1,196,90.6l63.3,116.82Q277.13,197,293.58,185C296.84,163,305,145.19,318,132.23,331.26,119,349.48,110.68,372.14,107.57Z"/><path class="cls-1" d="M84.07,263.85A421.54,421.54,0,0,0,242,217L178.76,100.27a289.83,289.83,0,0,1-66.84,24.85A298.53,298.53,0,0,0,84.07,263.85Z"/><path class="cls-2" d="M503.15,104.21c7.05,0,13.2.12,18.64.37a294,294,0,0,0-79.65-65.95A443.79,443.79,0,0,1,409.19,94.7q5.91,4.68,11.6,9.66c5.42-.1,11.1-.15,17.08-.15Z"/><path class="cls-1" d="M102.13,401A312.43,312.43,0,0,1,66,284.86,442.9,442.9,0,0,1,.3,282.93,294.18,294.18,0,0,0,32.83,431.37,585.76,585.76,0,0,0,118,427.11Q109.51,414.54,102.13,401Z"/><path class="cls-3" d="M289.65,257.35a33.51,33.51,0,0,0,.32-5.25c0-15.67.37-29.38,1.1-41.36-7.3,4.86-14.75,9.56-22.41,14l18.75,34.61a23.41,23.41,0,0,0,2.22-2Z"/><path class="cls-1" d="M258.2,294.54a72.36,72.36,0,0,1,13.92-22L251.4,234.34A440.7,440.7,0,0,1,85.52,283.47a293.88,293.88,0,0,0,33.9,108.14A298.29,298.29,0,0,0,139.78,424a585.59,585.59,0,0,0,112.89-30.16V326.71C252.67,314.06,254.48,303.53,258.2,294.54Z"/><path class="cls-1" d="M131.15,445.22a606.69,606.69,0,0,1-87.15,6A294.32,294.32,0,0,0,165.41,561.51a726.54,726.54,0,0,0,90.07-21.17A313.62,313.62,0,0,1,131.15,445.22Z"/><path class="cls-1" d="M256,467c-1.88-13.69-3-30.86-3.27-52.18a604.49,604.49,0,0,1-99.23,26.8A295.24,295.24,0,0,0,284.91,530.7c1.64-.57,3.29-1.16,4.93-1.75a75.1,75.1,0,0,1-9.15-7.79C267.44,507.92,259.13,489.7,256,467Z"/><path class="cls-1" d="M285.42,551.32a746.83,746.83,0,0,1-87.25,23.93,295.25,295.25,0,0,0,225.58-12.34A320.18,320.18,0,0,1,285.42,551.32Z"/><path class="cls-4" d="M592.07,298.73q-7-7-22.14-8.16t-43.13-1.16H508.15q-12.13,0-20.28.7c-5.45.46-9.79,1.86-13.06,4.19s-5.52,6-6.76,11-1.86,12.12-1.86,21.45.62,16.55,1.86,21.68,3.34,8.86,6.3,11.19a20.12,20.12,0,0,0,11.42,4q7,.46,17.72.47a92.42,92.42,0,0,1,12.12.69,14.71,14.71,0,0,1,8.63,4.2q3.5,3.5,5.36,11t1.86,21.45q0,14-1.86,21.68t-6.76,11.19q-4.9,3.49-13.06,4t-20.28.47h-28q-21,0-32.4-.94t-16.55-6.06q-5.15-5.12-6.06-16.55t-.94-32.4V270.76q0-21,.94-32.41t6.06-16.55q5.12-5.13,16.55-6.06t32.4-.93h46.63q14,0,23.08-.47t14.22-4q5.13-3.49,7.23-11.19t2.09-21.68q0-14-2.09-21.45t-7.23-11q-5.15-3.49-14.22-4.2t-23.08-.69H442.87q-38.7,0-60.84,3t-33.57,14.45Q337,169.12,334,191.49t-3,60.62q0,11.65-2.79,18.41a36.17,36.17,0,0,1-7,11.19,58.12,58.12,0,0,1-8.86,7.7,58,58,0,0,0-8.86,7.69,36.57,36.57,0,0,0-7,11.19q-2.79,6.76-2.8,18.42v74.6q0,38.7,3,60.84t14.46,33.57q11.41,11.43,33.57,14.46t60.84,3H526.8q28,0,43.13-1.17t22.14-8.16q7-7,8.16-22.15t1.17-43.12V364q0-28-1.17-43.13T592.07,298.73Z"/></g></g></svg>